<svg width="64" height="64" viewBox="0 0 64 64" fill="none" xmlns="http://www.w3.org/2000/svg">
<g clip-path="url(#clip0_1_1469)">
<path d="M32.9502 16.6875L36.5039 27.4951L47.3125 31.0498L50.2012 32L47.3125 32.9502L36.5039 36.5039L32.9502 47.3125L32 50.2012L31.0498 47.3125L27.4951 36.5039L16.6875 32.9502L13.7988 32L16.6875 31.0498L27.4951 27.4951L31.0498 16.6875L32 13.7988L32.9502 16.6875Z" stroke="#1254FF" stroke-width="2" stroke-linecap="round"/>
</g>
<circle cx="32" cy="32" r="31.5" stroke="black" stroke-opacity="0.1"/>
<path d="M56.5134 52.5692C59.5227 48.9829 61.7084 44.7799 62.9164 40.2569C64.1244 35.7338 64.3252 31.0007 63.5047 26.3916C62.6842 21.7824 60.8623 17.4094 58.1676 13.5811C55.4729 9.75278 51.9711 6.56234 47.909 4.23484L47.4317 5.0678C51.3719 7.32547 54.7687 10.4202 57.3826 14.1337C59.9964 17.8472 61.7636 22.0889 62.5596 26.5598C63.3554 31.0307 63.1607 35.6218 61.9889 40.0091C60.8172 44.3965 58.697 48.4734 55.778 51.9521L56.5134 52.5692Z" fill="#1254FF"/>
<defs>
<clipPath id="clip0_1_1469">
<rect width="40" height="40" fill="white" transform="translate(12 12)"/>
</clipPath>
</defs>
</svg>
