<svg width="138" height="35" viewBox="0 0 138 35" fill="none" xmlns="http://www.w3.org/2000/svg">
<path d="M16.8399 34.72V23.56C16.0932 24.6267 15.1199 25.4934 13.9199 26.16C12.7466 26.8 11.3332 27.12 9.67989 27.12C7.73323 27.12 6.02656 26.6667 4.55989 25.76C3.11989 24.8267 1.99989 23.5734 1.19989 22C0.399893 20.4267 -0.000107348 18.6934 -0.000107348 16.8C-0.000107348 14.88 0.399893 13.1467 1.19989 11.6C1.99989 10.0267 3.11989 8.78671 4.55989 7.88005C6.02656 6.94671 7.73323 6.48005 9.67989 6.48005C11.3332 6.48005 12.7466 6.80005 13.9199 7.44005C15.1199 8.05338 16.0932 8.90671 16.8399 10V6.80005H19.8399V34.72H16.8399ZM10.0799 24.4C11.5732 24.4 12.8266 24.0534 13.8399 23.36C14.8799 22.6667 15.6666 21.7467 16.1999 20.6C16.7332 19.4267 16.9999 18.16 16.9999 16.8C16.9999 15.4134 16.7332 14.1467 16.1999 13C15.6666 11.8534 14.8799 10.9334 13.8399 10.24C12.8266 9.54671 11.5732 9.20005 10.0799 9.20005C8.61323 9.20005 7.34656 9.54671 6.27989 10.24C5.21323 10.9334 4.39989 11.8534 3.83989 13C3.27989 14.1467 2.99989 15.4134 2.99989 16.8C2.99989 18.16 3.27989 19.4267 3.83989 20.6C4.39989 21.7467 5.21323 22.6667 6.27989 23.36C7.34656 24.0534 8.61323 24.4 10.0799 24.4ZM35.149 27.12C32.5356 27.12 30.4156 26.7734 28.789 26.08C27.1623 25.36 25.9356 24.3734 25.109 23.12C24.309 21.8667 23.8423 20.4534 23.709 18.88H26.829C26.909 20.16 27.3356 21.2 28.109 22C28.8823 22.7734 29.8956 23.3467 31.149 23.72C32.429 24.0934 33.829 24.28 35.349 24.28C37.589 24.28 39.3623 23.8934 40.669 23.12C41.9756 22.32 42.629 21.1467 42.629 19.6C42.629 18.6667 42.2956 17.92 41.629 17.36C40.989 16.7734 40.1223 16.2934 39.029 15.92C37.9623 15.5467 36.789 15.2134 35.509 14.92C34.229 14.6 32.9356 14.2667 31.629 13.92C30.349 13.5734 29.1623 13.1334 28.069 12.6C27.0023 12.0667 26.1356 11.3867 25.469 10.56C24.829 9.70671 24.509 8.62671 24.509 7.32005C24.509 5.16005 25.3356 3.40005 26.989 2.04005C28.669 0.680048 31.1623 4.81606e-05 34.469 4.81606e-05C36.8156 4.81606e-05 38.749 0.360048 40.269 1.08005C41.789 1.77338 42.9223 2.69338 43.669 3.84005C44.4423 4.98671 44.869 6.22671 44.949 7.56005H41.869C41.709 6.22671 41.0423 5.10672 39.869 4.20005C38.6956 3.26671 36.8956 2.80005 34.469 2.80005C32.9756 2.80005 31.7623 2.94671 30.829 3.24005C29.8956 3.53338 29.1756 3.92005 28.669 4.40005C28.189 4.85338 27.8556 5.33338 27.669 5.84005C27.509 6.34671 27.429 6.82672 27.429 7.28005C27.429 8.16005 27.749 8.88005 28.389 9.44005C29.0556 9.97338 29.9223 10.4267 30.989 10.8C32.0823 11.1467 33.2823 11.4667 34.589 11.76C35.8956 12.0534 37.189 12.3867 38.469 12.76C39.7756 13.1067 40.9623 13.56 42.029 14.12C43.1223 14.6534 43.989 15.3467 44.629 16.2C45.2956 17.0534 45.629 18.1467 45.629 19.48C45.629 21.9334 44.6956 23.8267 42.829 25.16C40.9623 26.4667 38.4023 27.12 35.149 27.12ZM49.6383 34.72V6.80005H52.6383V10C53.385 8.90671 54.345 8.05338 55.5183 7.44005C56.7183 6.80005 58.145 6.48005 59.7983 6.48005C61.745 6.48005 63.4383 6.94671 64.8783 7.88005C66.345 8.78671 67.4783 10.0267 68.2783 11.6C69.0783 13.1467 69.4783 14.88 69.4783 16.8C69.4783 18.6934 69.0783 20.4267 68.2783 22C67.4783 23.5734 66.345 24.8267 64.8783 25.76C63.4383 26.6667 61.745 27.12 59.7983 27.12C58.145 27.12 56.7183 26.8 55.5183 26.16C54.345 25.4934 53.385 24.6267 52.6383 23.56V34.72H49.6383ZM59.3983 24.4C60.8917 24.4 62.1583 24.0534 63.1983 23.36C64.265 22.6667 65.0783 21.7467 65.6383 20.6C66.1983 19.4267 66.4783 18.16 66.4783 16.8C66.4783 15.4134 66.1983 14.1467 65.6383 13C65.0783 11.8534 64.265 10.9334 63.1983 10.24C62.1583 9.54671 60.8917 9.20005 59.3983 9.20005C57.9317 9.20005 56.6783 9.54671 55.6383 10.24C54.5983 10.9334 53.8117 11.8534 53.2783 13C52.745 14.1467 52.4783 15.4134 52.4783 16.8C52.4783 18.16 52.745 19.4267 53.2783 20.6C53.8117 21.7467 54.5983 22.6667 55.6383 23.36C56.6783 24.0534 57.9317 24.4 59.3983 24.4ZM81.8674 27.12C79.9207 27.12 78.2141 26.6667 76.7474 25.76C75.3074 24.8267 74.1874 23.5734 73.3874 22C72.5874 20.4267 72.1874 18.6934 72.1874 16.8C72.1874 14.88 72.5874 13.1467 73.3874 11.6C74.1874 10.0267 75.3074 8.78671 76.7474 7.88005C78.2141 6.94671 79.9207 6.48005 81.8674 6.48005C83.5207 6.48005 84.9341 6.80005 86.1074 7.44005C87.3074 8.08005 88.2807 8.94671 89.0274 10.04V6.80005H92.0274V26.8H89.0274V23.6C88.2807 24.6667 87.3074 25.52 86.1074 26.16C84.9341 26.8 83.5207 27.12 81.8674 27.12ZM82.2674 24.4C83.7607 24.4 85.0141 24.0534 86.0274 23.36C87.0674 22.6667 87.8541 21.7467 88.3874 20.6C88.9207 19.4267 89.1874 18.16 89.1874 16.8C89.1874 15.4134 88.9207 14.1467 88.3874 13C87.8541 11.8534 87.0674 10.9334 86.0274 10.24C85.0141 9.54671 83.7607 9.20005 82.2674 9.20005C80.8007 9.20005 79.5341 9.54671 78.4674 10.24C77.4007 10.9334 76.5874 11.8534 76.0274 13C75.4674 14.1467 75.1874 15.4134 75.1874 16.8C75.1874 18.16 75.4674 19.4267 76.0274 20.6C76.5874 21.7467 77.4007 22.6667 78.4674 23.36C79.5341 24.0534 80.8007 24.4 82.2674 24.4ZM105.816 27.12C103.816 27.12 102.083 26.6667 100.616 25.76C99.1498 24.8267 98.0031 23.5734 97.1765 22C96.3765 20.4267 95.9765 18.6934 95.9765 16.8C95.9765 14.88 96.3765 13.1467 97.1765 11.6C98.0031 10.0267 99.1498 8.78671 100.616 7.88005C102.083 6.94671 103.816 6.48005 105.816 6.48005C108.19 6.48005 110.203 7.09338 111.856 8.32005C113.536 9.54672 114.67 11.1334 115.256 13.08H112.016C111.563 11.9334 110.83 11 109.816 10.28C108.83 9.56005 107.63 9.20005 106.216 9.20005C104.75 9.20005 103.47 9.54671 102.376 10.24C101.283 10.9334 100.443 11.8534 99.8565 13C99.2698 14.1467 98.9765 15.4134 98.9765 16.8C98.9765 18.16 99.2698 19.4267 99.8565 20.6C100.443 21.7467 101.283 22.6667 102.376 23.36C103.47 24.0534 104.75 24.4 106.216 24.4C107.63 24.4 108.83 24.04 109.816 23.32C110.83 22.6 111.563 21.6667 112.016 20.52H115.256C114.67 22.4667 113.536 24.0534 111.856 25.28C110.203 26.5067 108.19 27.12 105.816 27.12ZM127.854 27.12C125.828 27.12 124.054 26.6667 122.534 25.76C121.014 24.8267 119.828 23.5734 118.974 22C118.148 20.4267 117.734 18.6934 117.734 16.8C117.734 14.88 118.134 13.1467 118.934 11.6C119.734 10.0267 120.881 8.78671 122.374 7.88005C123.868 6.94671 125.628 6.48005 127.654 6.48005C129.708 6.48005 131.468 6.94671 132.934 7.88005C134.428 8.78671 135.574 10.0267 136.374 11.6C137.174 13.1467 137.574 14.88 137.574 16.8V18H120.814C120.974 19.1734 121.348 20.2534 121.934 21.24C122.548 22.2 123.361 22.9734 124.374 23.56C125.388 24.12 126.561 24.4 127.894 24.4C129.308 24.4 130.494 24.0934 131.454 23.48C132.414 22.84 133.161 22.0267 133.694 21.04H136.974C136.281 22.8267 135.174 24.2934 133.654 25.44C132.161 26.56 130.228 27.12 127.854 27.12ZM120.854 15.2H134.454C134.188 13.4934 133.468 12.0667 132.294 10.92C131.121 9.77338 129.574 9.20005 127.654 9.20005C125.734 9.20005 124.188 9.77338 123.014 10.92C121.868 12.0667 121.148 13.4934 120.854 15.2Z" fill="black"/>
</svg>
